<svg xmlns="http://www.w3.org/2000/svg" viewBox="0 0 20 44" style="height: 15px; position: relative; top: 2px;">
    <path fill="#bbb" fill-rule="evenodd" d="M8.0066 16.05305v-7.6523c0-.82422-.47656-1.0273-1.0586-.4414l-3.5117 3.5039c-1.8789 1.875-4.6953-.94142-2.8164-2.8164L8.7215.61564c.68359-.67579 1.8008-.6797 2.4922 0l8.1641 8.0312c1.8789 1.875-.9375 4.6914-2.8164 2.8164l-3.5078-3.5039c-.58984-.58985-1.0625-.38673-1.0625.4414v27.30827c0 .82031.47656 1.0273 1.0586.44141l3.5117-3.5039c1.8789-1.875 4.6953.9375 2.8164 2.8164l-8.1016 8.0273c-.6836.6797-1.8008.6797-2.4922 0l-8.1641-8.0273c-1.8789-1.8789.9375-4.6914 2.8164-2.8164l3.5078 3.5039c.58984.58984 1.0625.38672 1.0625-.4414V16.05304z"/>
</svg>